# xmcd CD database file
#
# Track frame offsets:
#	150
#	17897
#	39182
#	56642
#
# Disc length: 1037 seconds
#
# Revision: 1
# Processed by: cddbd v1.5PL3 Copyright (c) Steve Scherf et al.
# Submitted via: CDex 1.40Release
#
DISCID=29040b04
DTITLE=Mic Geronimo - Nothin' Move But The Money - Remix
DYEAR=1998
DGENRE=Hip-Hop
TTITLE0=Nothin' Move But The Money (remix) feat. DMX and Black Rob
TTITLE1=Usual Suspects feat. DMX, Ja, The Lox, and Khadafi
TTITLE2=Nothin' Move But The Money (remix inst.)
TTITLE3=Usual Suspects (inst.)
EXTD=YEAR: 1998 ID3G: 7
EXTT0=
EXTT1=
EXTT2=
EXTT3=
PLAYORDER=
